<svg width="25" height="25" viewBox="0 0 25 25" fill="none" xmlns="http://www.w3.org/2000/svg">
<path d="M12.5001 5.35715C11.6171 5.35715 10.754 5.61897 10.0198 6.10952C9.28568 6.60006 8.71348 7.29728 8.37559 8.11302C8.0377 8.92877 7.94929 9.82638 8.12155 10.6924C8.2938 11.5584 8.71899 12.3538 9.34333 12.9782C9.96767 13.6025 10.7631 14.0277 11.6291 14.1999C12.4951 14.3722 13.3927 14.2838 14.2085 13.9459C15.0242 13.608 15.7214 13.0358 16.212 12.3017C16.7025 11.5675 16.9643 10.7044 16.9643 9.82143C16.9643 8.63743 16.494 7.50192 15.6568 6.66471C14.8196 5.82749 13.6841 5.35715 12.5001 5.35715Z" fill="#555555"/>
<path d="M12.5 0C10.0277 0 7.61099 0.733112 5.55538 2.10663C3.49976 3.48015 1.89761 5.43238 0.951511 7.71646C0.00541604 10.0005 -0.242126 12.5139 0.24019 14.9386C0.722505 17.3634 1.91301 19.5907 3.66117 21.3388C5.40933 23.087 7.63661 24.2775 10.0614 24.7598C12.4861 25.2421 14.9995 24.9946 17.2835 24.0485C19.5676 23.1024 21.5199 21.5002 22.8934 19.4446C24.2669 17.389 25 14.9723 25 12.5C24.9962 9.18595 23.678 6.00873 21.3347 3.66534C18.9913 1.32196 15.814 0.003781 12.5 0ZM19.6357 20.4696C19.6179 19.2985 19.1408 18.1812 18.3071 17.3586C17.4734 16.5359 16.3498 16.0736 15.1786 16.0714H9.82143C8.65017 16.0736 7.52664 16.5359 6.69294 17.3586C5.85924 18.1812 5.38208 19.2985 5.36429 20.4696C3.74515 19.0239 2.60334 17.1204 2.09004 15.0113C1.57674 12.9022 1.71617 10.6869 2.48986 8.6588C3.26356 6.63069 4.63502 4.88542 6.42266 3.65408C8.21029 2.42274 10.3298 1.76342 12.5004 1.76342C14.6711 1.76342 16.7906 2.42274 18.5782 3.65408C20.3659 4.88542 21.7373 6.63069 22.511 8.6588C23.2847 10.6869 23.4242 12.9022 22.9109 15.0113C22.3976 17.1204 21.2557 19.0239 19.6366 20.4696H19.6357Z" fill="#555555"/>
</svg>
