<svg xmlns="http://www.w3.org/2000/svg" viewBox="0 0 166.66 111.82"><defs><style>.cls-1,.cls-2{fill-rule:evenodd;}.cls-2,.cls-4{fill:#999;}.cls-3{font-size:30.68px;}.cls-3,.cls-4{font-family:OpenSans-ExtraBoldItalic, Open Sans;font-weight:800;font-style:italic;}.cls-4{font-size:9.87px;}</style></defs><g id="Capa_2" data-name="Capa 2"><g id="Layer_1" data-name="Layer 1"><path class="cls-1" d="M25.75,83.9a102.87,102.87,0,0,0,27.76,18.91c13.78,6.44,27.64,9.32,39.93,9a91.78,91.78,0,0,1-36.08-9A102.87,102.87,0,0,1,29.6,83.9ZM47.5,0C26.61-.52,9.56,7.91,3.81,23.92c-3.52,9.82-2.25,21,2.78,32h3.84c-5-11-6.29-22.15-2.77-32C13.05,8.91,28.38.56,47.5,0Z"/><path class="cls-2" d="M36.18,5.07C24.81,7.62,16,13.73,11.71,23.08l9.54,4.73c3.28-7.76,9.91-13.14,18.52-15.93l6.06,3.66c-3.2-3.52-6.4-7-9.65-10.47M34.93,83.9A100.84,100.84,0,0,0,54.08,97.3l3.7-2.77A90.51,90.51,0,0,1,43.09,83.9ZM11.11,24.5c-.07.19-.15.37-.21.56-3.45,9.36-2,20.2,3.19,30.83h8.8c-3.83-8.62-5-17.33-2.72-25.06l5.58.85C20.84,29.33,16,26.92,11.11,24.5ZM127.22,93.78a30,30,0,0,1-13,9.31l-3.08-2.75c.9,2,1.7,3.88,2.67,5.85,7.37-2.47,13.38-6.65,17.33-12.41ZM86.56,12.93A101.34,101.34,0,0,0,72.44,7.41l.39,4.79a87.12,87.12,0,0,1,15.5,5.87c1.21.6,2.4,1.21,3.57,1.85,2.86.25,5.9.65,8.79,1.2A103.85,103.85,0,0,0,86.56,12.93Zm-31,85.17c1,.53,2.06,1.05,3.11,1.55a96.62,96.62,0,0,0,22.12,7.56l1-3a85.59,85.59,0,0,1-18.2-6.55Q62,96.85,60.44,96L63,92.42Zm26.76,9.41c11,2.06,21.34,1.72,30-.85l-1.23-2.5c-7.62,2.23-16.69,2.49-26.34.65l.06-4.94ZM70.85,7C59,3.58,47.65,2.9,38,4.71l5.69,6.12a60.12,60.12,0,0,1,25.76.53l2.16,4.16Z"/><path class="cls-1" d="M84.92,50.12c1.61-3.31,4.43-5.36,8.9-5.57,3.94.21,8.11,2.92,11.13,12.67,0-.28-.07-.56-.11-.82-2-9.6-5.79-13.59-10.79-13.73-4.71.23-7.61,3.18-9.13,7.45m-56.64-.43A5.74,5.74,0,0,1,33.4,46c3.14.3,4.87,3.27,5.82,7-.86-4.39-2.45-7.89-5.75-8.2C30.9,44.91,29.28,46.83,28.28,49.69Zm108.28-1.95c-10.27-.38-19.27-1-26-2a19.16,19.16,0,0,0,3.9,4.27,10.29,10.29,0,0,0,4,1.72c6.65.84,13.14,1.35,19.75,1.74-1-1.4-1.86-2.4-2.88-3.8C135.08,48.68,135.63,48.1,136.56,47.74ZM83,38A69.21,69.21,0,0,0,72,27.18c-1.7-1.4-4.94-2-9-1-6.15,1.43-11.38,4.22-16.57,7.49l.45,3.59A1.34,1.34,0,0,0,48,38l21.77,0a2.73,2.73,0,0,0,1.41.35c1.15-.07,2.23-.15,3.33-.26-1.12,0-1.78,0-3,0a3.18,3.18,0,0,1-2.87-2.21.7.7,0,0,1,.22-.68,4.85,4.85,0,0,1,2.8-1.11c1.88,0,3.72,0,4.41.46a1.3,1.3,0,0,1,.45.56L77,36.65c.71.63,2,1.71,2.85,2.46-.23-.35-.49-.73-.76-1.1Zm8.18-1.91A101.65,101.65,0,0,1,107,39.59a67,67,0,0,0-12-3.56c10.5-.2,21.2-.52,31.51-.61-1-.6-2-1.24-3.21-1.9-4.55-2.76-9.05-5.83-14.25-8a43.65,43.65,0,0,0-9.37-2.32C90.9,22.07,81.3,22,72.46,22A49.89,49.89,0,0,0,61.14,23.7C53.45,26,45.24,30.05,38,33.85a29.31,29.31,0,0,1-6,1.73c-.49.44,0,1.26.19,1.61a33.72,33.72,0,0,0-5.59,4.13c-1.45,1.37-1.54,2.08-1.61,4C24.9,48,26.07,51,26,53.7c.09-2.66,0-5,.14-7.63.07-1.94.16-2.65,1.61-4a33.26,33.26,0,0,1,5-3.77L39.1,38l-5.3-.38.05,0-.45-1a25.11,25.11,0,0,0,5.77-1.61c7.27-3.81,14.65-7.6,22.34-9.9A49.89,49.89,0,0,1,72.83,23.3c8.85,0,17.7-.1,26.54,1.08a42.75,42.75,0,0,1,9.37,2.33l1.39.57a34.35,34.35,0,0,0-7.39-1.8Q82.1,24,74.33,25.59A58.68,58.68,0,0,1,85,36.18ZM160.88,48c-8,.49-15.81.57-23.87.41a.85.85,0,0,0-.68,1.14l3.87,5c-8.17-.29-16.73-1-23.06-1.9,16,3.35,33.25,3.87,44.76,1.84v0c.21.68.43,1.36.65,2h1.34a17.89,17.89,0,0,0-.64-2.82,4.16,4.16,0,0,0-.22-3.29l-.3-4.19c-4.05-6.71-14.69-8.67-26.62-9.71,11.61,1.4,21.41,4.25,24.6,10.35A6.3,6.3,0,0,0,160.88,48Z"/><text class="cls-3" transform="translate(0 80.76) scale(1.25 1)">DAIMLER</text><text class="cls-4" transform="translate(121.13 90.6) scale(1.25 1)">Team 7</text></g></g></svg>