<svg width="19" height="12" viewBox="0 0 19 12" fill="none" xmlns="http://www.w3.org/2000/svg">
<path d="M6.375 10.4062C6.375 10.199 6.45731 10.0003 6.60382 9.85382C6.75034 9.70731 6.94905 9.625 7.15625 9.625H11.8438C12.051 9.625 12.2497 9.70731 12.3962 9.85382C12.5427 10.0003 12.625 10.199 12.625 10.4062C12.625 10.6135 12.5427 10.8122 12.3962 10.9587C12.2497 11.1052 12.051 11.1875 11.8438 11.1875H7.15625C6.94905 11.1875 6.75034 11.1052 6.60382 10.9587C6.45731 10.8122 6.375 10.6135 6.375 10.4062ZM3.25 5.71875C3.25 5.51155 3.33231 5.31284 3.47882 5.16632C3.62534 5.01981 3.82405 4.9375 4.03125 4.9375H14.9688C15.176 4.9375 15.3747 5.01981 15.5212 5.16632C15.6677 5.31284 15.75 5.51155 15.75 5.71875C15.75 5.92595 15.6677 6.12466 15.5212 6.27118C15.3747 6.41769 15.176 6.5 14.9688 6.5H4.03125C3.82405 6.5 3.62534 6.41769 3.47882 6.27118C3.33231 6.12466 3.25 5.92595 3.25 5.71875ZM0.125 1.03125C0.125 0.82405 0.20731 0.625336 0.353823 0.478823C0.500336 0.33231 0.69905 0.25 0.90625 0.25H18.0938C18.301 0.25 18.4997 0.33231 18.6462 0.478823C18.7927 0.625336 18.875 0.82405 18.875 1.03125C18.875 1.23845 18.7927 1.43716 18.6462 1.58368C18.4997 1.73019 18.301 1.8125 18.0938 1.8125H0.90625C0.69905 1.8125 0.500336 1.73019 0.353823 1.58368C0.20731 1.43716 0.125 1.23845 0.125 1.03125Z" fill="black"/>
</svg>
