<svg width="28" height="28" viewBox="0 0 28 28" fill="none" xmlns="http://www.w3.org/2000/svg">
<rect x="0.5" y="0.5" width="27" height="27" rx="3.5" fill="white" stroke="#BDBDBD"/>
<path d="M18.2079 7.54951L20.4505 9.79108L18.2079 7.54951ZM19.65 5.57477L13.586 11.6388C13.2727 11.9517 13.059 12.3503 12.9719 12.7844L12.4117 15.5882L15.2156 15.0271C15.6497 14.9402 16.0478 14.7274 16.3612 14.414L22.4252 8.35C22.6074 8.16777 22.752 7.95144 22.8506 7.71335C22.9492 7.47527 23 7.22009 23 6.96238C23 6.70468 22.9492 6.4495 22.8506 6.21141C22.752 5.97332 22.6074 5.75699 22.4252 5.57477C22.243 5.39254 22.0267 5.248 21.7886 5.14938C21.5505 5.05076 21.2953 5 21.0376 5C20.7799 5 20.5247 5.05076 20.2866 5.14938C20.0486 5.248 19.8322 5.39254 19.65 5.57477V5.57477Z" stroke="#555555" stroke-width="2.08333" stroke-linecap="round" stroke-linejoin="round"/>
<path d="M20.8826 17.7057V20.8823C20.8826 21.4439 20.6595 21.9826 20.2624 22.3797C19.8652 22.7768 19.3266 23 18.765 23H7.11769C6.55604 23 6.0174 22.7768 5.62026 22.3797C5.22311 21.9826 5 21.4439 5 20.8823V9.235C5 8.67335 5.22311 8.13471 5.62026 7.73757C6.0174 7.34042 6.55604 7.11731 7.11769 7.11731H10.2942" stroke="#555555" stroke-width="2.08333" stroke-linecap="round" stroke-linejoin="round"/>
</svg>
