<svg width="24" height="24" viewBox="0 0 24 24" fill="none" xmlns="http://www.w3.org/2000/svg">
<path d="M23.9952 8.20312C23.5686 4.65938 20.3202 1.99687 16.5749 0.764062C18.2811 2.61094 19.4999 5.47969 19.4999 9H20.8171L15.3514 15.0703C15.2343 15.0422 15.1264 15 14.9999 15H12.7499V9H17.9999C17.9999 3.6 14.7702 0 11.9999 0C9.22957 0 5.99988 3.6 5.99988 9H11.2499V15H8.99988C8.87332 15 8.76551 15.0422 8.64832 15.0703L3.18269 9H4.49988C4.49988 5.47969 5.71863 2.61094 7.42488 0.764062C3.67957 2.00156 0.431131 4.66406 0.00456821 8.20312C-0.0469943 8.62969 0.323318 9 0.754568 9H1.16238L7.57019 16.1203C7.53738 16.2422 7.49519 16.3641 7.49519 16.5V22.5C7.49519 23.3297 8.16551 24 8.99519 24H14.9952C15.8249 24 16.4952 23.3297 16.4952 22.5V16.5C16.4952 16.3641 16.453 16.2469 16.4202 16.1203L22.8327 9H23.2405C23.6764 9 24.0468 8.63437 23.9952 8.20312Z" fill="#555555" fill-opacity="0.5"/>
</svg>
