<svg width="20" height="22" viewBox="0 0 20 22" fill="none" xmlns="http://www.w3.org/2000/svg">
<path d="M10.0116 8.15468C9.31083 8.15468 8.65458 8.42655 8.1577 8.92343C7.66317 9.4203 7.38895 10.0766 7.38895 10.7773C7.38895 11.4781 7.66317 12.1344 8.1577 12.6312C8.65458 13.1258 9.31083 13.4 10.0116 13.4C10.7124 13.4 11.3686 13.1258 11.8655 12.6312C12.36 12.1344 12.6343 11.4781 12.6343 10.7773C12.6343 10.0766 12.36 9.4203 11.8655 8.92343C11.6228 8.67887 11.334 8.48498 11.0157 8.35301C10.6974 8.22104 10.3561 8.15362 10.0116 8.15468ZM19.6749 13.6742L18.1421 12.3641C18.2147 11.9187 18.2522 11.4641 18.2522 11.0117C18.2522 10.5594 18.2147 10.1023 18.1421 9.65936L19.6749 8.34921C19.7907 8.25008 19.8736 8.11806 19.9125 7.97069C19.9514 7.82332 19.9446 7.66759 19.8929 7.52421L19.8718 7.46327C19.4499 6.28364 18.8178 5.1902 18.0061 4.23593L17.964 4.18671C17.8654 4.07081 17.734 3.9875 17.5872 3.94776C17.4403 3.90801 17.2849 3.91369 17.1413 3.96405L15.2382 4.64139C14.535 4.06483 13.7522 3.61014 12.9038 3.29374L12.5358 1.30389C12.5081 1.15399 12.4353 1.01609 12.3273 0.908498C12.2193 0.800909 12.0811 0.72873 11.9311 0.70155L11.8679 0.689832C10.6491 0.469519 9.36473 0.469519 8.14598 0.689832L8.0827 0.70155C7.93269 0.72873 7.79451 0.800909 7.6865 0.908498C7.57849 1.01609 7.50578 1.15399 7.47801 1.30389L7.1077 3.30311C6.2673 3.62204 5.48441 4.07563 4.78973 4.64608L2.87255 3.96405C2.72903 3.91329 2.57346 3.9074 2.42652 3.94717C2.27958 3.98695 2.14821 4.07049 2.04989 4.18671L2.0077 4.23593C1.19745 5.19122 0.565525 6.28438 0.142077 7.46327L0.120983 7.52421C0.0155143 7.81718 0.102233 8.1453 0.338952 8.34921L1.89051 9.67343C1.81786 10.1141 1.7827 10.5641 1.7827 11.0094C1.7827 11.4594 1.81786 11.9094 1.89051 12.3453L0.343639 13.6695C0.227848 13.7686 0.144975 13.9007 0.106039 14.048C0.0671037 14.1954 0.0739509 14.3511 0.12567 14.4945L0.146764 14.5555C0.570983 15.7344 1.19676 16.8242 2.01239 17.7828L2.05458 17.832C2.15314 17.9479 2.28451 18.0312 2.43136 18.071C2.57822 18.1107 2.73367 18.105 2.87723 18.0547L4.79442 17.3726C5.49286 17.9469 6.27098 18.4016 7.11239 18.7156L7.4827 20.7148C7.51046 20.8647 7.58318 21.0026 7.69119 21.1102C7.79919 21.2178 7.93738 21.29 8.08739 21.3172L8.15067 21.3289C9.38141 21.5504 10.6418 21.5504 11.8725 21.3289L11.9358 21.3172C12.0858 21.29 12.224 21.2178 12.332 21.1102C12.44 21.0026 12.5128 20.8647 12.5405 20.7148L12.9085 18.725C13.7569 18.4062 14.5397 17.9539 15.2429 17.3773L17.146 18.0547C17.2895 18.1054 17.4451 18.1113 17.592 18.0716C17.739 18.0318 17.8703 17.9482 17.9686 17.832L18.0108 17.7828C18.8265 16.8195 19.4522 15.7344 19.8765 14.5555L19.8975 14.4945C19.9983 14.2039 19.9116 13.8781 19.6749 13.6742ZM10.0116 14.8976C7.73583 14.8976 5.8913 13.0531 5.8913 10.7773C5.8913 8.50155 7.73583 6.65702 10.0116 6.65702C12.2874 6.65702 14.1319 8.50155 14.1319 10.7773C14.1319 13.0531 12.2874 14.8976 10.0116 14.8976Z" fill="#555555" fill-opacity="0.5"/>
</svg>
